<?xml version="1.0" standalone="no"?>
<!DOCTYPE svg PUBLIC "-//W3C//DTD SVG 20010904//EN"
 "http://www.w3.org/TR/2001/REC-SVG-20010904/DTD/svg10.dtd">
<svg version="1.0" xmlns="http://www.w3.org/2000/svg"
 width="1024.000000pt" height="1024.000000pt" viewBox="0 0 1024.000000 1024.000000"
 preserveAspectRatio="xMidYMid meet">
<metadata>
Created by potrace 1.11, written by Peter Selinger 2001-2013
</metadata>
<g transform="translate(0.000000,1024.000000) scale(0.100000,-0.100000)"
fill="#000000" stroke="none">
<path d="M1475 9265 c-243 -53 -423 -224 -492 -466 -17 -61 -18 -212 -18
-3679 0 -3431 1 -3618 18 -3679 66 -241 254 -418 492 -465 73 -15 412 -16
3670 -14 3439 3 3593 4 3650 22 232 70 379 233 453 501 l27 100 3 3560 c3
3984 10 3628 -71 3788 -74 149 -223 272 -392 323 -58 18 -210 19 -3670 21
-2966 1 -3621 -1 -3670 -12z m2365 -2065 l0 -160 -800 0 -800 0 0 160 0 160
800 0 800 0 0 -160z m-640 -3360 l0 -320 320 0 320 0 0 -160 0 -160 -320 0
-320 0 0 -320 0 -320 -160 0 -160 0 0 320 0 320 -320 0 -320 0 0 160 0 160
320 0 320 0 0 320 0 320 160 0 160 0 0 -320z m4800 -160 l0 -160 -800 0 -800
0 0 160 0 160 800 0 800 0 0 -160z m0 -640 l0 -160 -800 0 -800 0 0 160 0 160
800 0 800 0 0 -160z"/>
</g>
</svg>
