<?xml version="1.0" standalone="no"?>
<!DOCTYPE svg PUBLIC "-//W3C//DTD SVG 20010904//EN"
 "http://www.w3.org/TR/2001/REC-SVG-20010904/DTD/svg10.dtd">
<svg version="1.0" xmlns="http://www.w3.org/2000/svg"
 width="512.000000pt" height="512.000000pt" viewBox="0 0 512.000000 512.000000"
 preserveAspectRatio="xMidYMid meet">
<metadata>
Created by potrace 1.11, written by Peter Selinger 2001-2013
</metadata>
<g transform="translate(0.000000,512.000000) scale(0.100000,-0.100000)"
fill="#000000" stroke="none">
<path d="M798 5110 c-75 -13 -158 -39 -236 -76 -260 -119 -452 -346 -534 -630
l-23 -79 0 -1765 0 -1765 23 -79 c99 -341 347 -589 688 -688 l79 -23 1765 0
1765 0 80 23 c340 99 588 347 687 687 l23 80 0 1760 c0 1931 4 1780 -56 1943
-89 243 -315 472 -553 559 -23 8 -72 25 -111 36 l-70 21 -1740 2 c-957 1
-1761 -2 -1787 -6z m650 -650 c1 0 11 -15 22 -32 19 -31 20 -51 20 -310 l0
-278 263 0 c153 0 278 -5 300 -11 76 -21 98 -112 42 -168 l-25 -26 -290 -3
-289 -3 -3 -289 -3 -290 -26 -25 c-56 -56 -147 -34 -168 42 -6 22 -11 147 -11
301 l0 262 -277 0 c-258 0 -280 1 -310 20 -34 20 -53 66 -45 107 6 32 47 69
83 77 18 3 148 6 290 6 l259 0 0 259 c0 142 3 272 6 290 8 36 46 78 77 83 12
2 35 0 52 -4 16 -4 31 -8 33 -8z m2984 -642 c39 -26 53 -82 30 -128 -9 -19
-28 -40 -42 -47 -31 -16 -1114 -19 -1154 -3 -81 30 -77 165 7 189 19 6 257 9
582 8 505 -2 553 -3 577 -19z m-2549 -1936 c21 -20 27 -35 27 -69 0 -40 -10
-55 -196 -288 l-196 -245 196 -245 c186 -233 196 -248 196 -288 0 -70 -66
-118 -131 -95 -22 8 -80 72 -210 234 -99 123 -181 224 -183 224 -2 0 -81 -96
-174 -212 -93 -117 -178 -220 -188 -229 -61 -53 -164 -5 -164 76 0 41 12 59
214 310 97 121 176 222 176 225 0 3 -79 104 -176 225 -97 121 -185 234 -195
250 -44 71 -1 155 78 155 21 0 48 -7 60 -15 11 -8 98 -111 193 -230 94 -118
174 -215 176 -215 2 0 84 101 183 224 124 154 188 227 208 233 38 13 73 5 106
-25z m1701 6 c14 -13 172 -268 351 -567 244 -408 325 -551 325 -575 0 -41 -24
-75 -67 -93 -31 -12 -38 -12 -71 4 -33 16 -71 75 -365 563 -180 300 -330 555
-333 568 -9 32 3 70 31 98 32 32 94 33 129 2z"/>
</g>
</svg>
